<svg xmlns="http://www.w3.org/2000/svg" version="1.1" xmlns:xlink="http://www.w3.org/1999/xlink" xmlns:svgjs="http://svgjs.dev/svgjs" width="2000" height="1500" viewBox="0 0 2000 1500"><rect width="2000" height="1500" fill="#000000"></rect><g transform="matrix(0.75,0,0,0.75,249.090909090909,282.7536437246963)"><svg viewBox="0 0 396 247" data-background-color="#000000" preserveAspectRatio="xMidYMid meet" height="1247" width="2000" xmlns="http://www.w3.org/2000/svg" xmlns:xlink="http://www.w3.org/1999/xlink"><g id="tight-bounds" transform="matrix(1,0,0,1,0.2400000000000091,-0.09999999999999432)"><svg viewBox="0 0 395.52 247.2" height="247.2" width="395.52"><g><svg></svg></g><g><svg viewBox="0 0 395.52 247.2" height="247.2" width="395.52"><g transform="matrix(1,0,0,1,150.70055207244374,47.215199999999996)"><svg viewBox="0 0 94.11889585511251 152.7696" height="152.7696" width="94.11889585511251"><g><svg viewBox="0 0 94.11889585511251 152.7696" height="152.7696" width="94.11889585511251"><g><svg viewBox="0 0 127.53340645248001 207.0065454271313" height="152.7696" width="94.11889585511251"><g><svg viewBox="0 0 127.53340645248001 207.0065454271313" height="207.0065454271313" width="127.53340645248001"><g><svg viewBox="0 0 127.53340645248001 207.0065454271313" height="207.0065454271313" width="127.53340645248001"><g><svg viewBox="0 0 127.53340645248001 151.825483872" height="151.825483872" width="127.53340645248001"><g transform="matrix(1,0,0,1,0,0)"><svg width="127.53340645248001" viewBox="2 -35 29.399999618530273 35" height="151.825483872" data-palette-color="#dd0505"><path d="M14.7-1.4L14.7 0 2 0 2-1.4 3.7-1.4Q5.2-1.4 5.65-2 6.1-2.6 6.1-3.7L6.1-3.7 6.1-31.3Q6.1-32.4 5.65-33 5.2-33.6 3.7-33.6L3.7-33.6 2-33.6 2-35 14.7-35 14.7-33.6 12.8-33.6Q11.3-33.6 10.85-33 10.4-32.4 10.4-31.3L10.4-31.3 10.4-3.7Q10.4-2.6 10.85-2 11.3-1.4 12.8-1.4L12.8-1.4 14.7-1.4ZM31.4-1.4L31.4 0 18.7 0 18.7-1.4 20.4-1.4Q21.9-1.4 22.35-2 22.8-2.6 22.8-3.7L22.8-3.7 22.8-31.3Q22.8-32.4 22.35-33 21.9-33.6 20.4-33.6L20.4-33.6 18.7-33.6 18.7-35 31.4-35 31.4-33.6 29.5-33.6Q28-33.6 27.55-33 27.1-32.4 27.1-31.3L27.1-31.3 27.1-3.7Q27.1-2.6 27.55-2 28-1.4 29.5-1.4L29.5-1.4 31.4-1.4Z" opacity="1" transform="matrix(1,0,0,1,0,0)" fill="#dd0505" class="undefined-text-0" data-fill-palette-color="primary" id="text-0"></path></svg></g></svg></g><g transform="matrix(1,0,0,1,0,187.66783680256628)"><svg viewBox="0 0 127.53340645248001 19.338708624564998" height="19.338708624564998" width="127.53340645248001"><g transform="matrix(1,0,0,1,0,0)"><svg width="127.53340645248001" viewBox="-0.15000000596046448 -40.95000076293945 349.82000732421875 53.05000305175781" height="19.338708624564998" data-palette-color="#dedede"><path d="M-0.15-25.7L-0.15-27.75 10.7-27.75 10.7-25.7 6.7-25.1 11.15-9.55 12.8-2.6 14.45-9.6 19.45-27.75 23.6-27.75 28.6-9.6 30.2-2.55 32-9.55 36.4-25.05 32.55-25.7 32.55-27.75 42.35-27.75 42.35-25.7 39.6-25.05 31.8 0.4 27.75 0.4 22.3-18.2 20.9-24.5 19.7-18.2 14.45 0.4 10.5 0.4 2.5-25.1-0.15-25.7ZM56.3 0.55Q50.5 0.55 47.37-3.43 44.25-7.4 44.25-14L44.25-14Q44.25-18.25 45.9-21.55 47.55-24.85 50.47-26.68 53.4-28.5 57.05-28.5L57.05-28.5Q61.5-28.5 63.97-25.95 66.45-23.4 66.65-18.6L66.65-18.6Q66.65-15.5 66.35-14.2L66.35-14.2 48.55-14.2Q48.55-8.95 50.92-5.63 53.3-2.3 57.6-2.3L57.6-2.3Q59.7-2.3 61.9-3.05 64.1-3.8 65.3-4.85L65.3-4.85 66.1-3Q64.65-1.5 61.87-0.48 59.1 0.55 56.3 0.55L56.3 0.55ZM48.6-16.55L62.15-16.55Q62.3-17.6 62.3-18.75L62.3-18.75Q62.25-22.05 60.72-24 59.2-25.95 56.05-25.95L56.05-25.95Q49.2-25.95 48.6-16.55L48.6-16.55ZM68.75-38.25L68.75-40.1 76.05-40.95 76.15-40.95 77.1-40.25 77.1-25.05Q78.65-26.5 80.82-27.5 83-28.5 85.65-28.5L85.65-28.5Q88.6-28.5 91.07-27.05 93.55-25.6 95.07-22.55 96.6-19.5 96.6-14.9L96.6-14.9Q96.6-10.6 94.85-7.08 93.1-3.55 89.85-1.5 86.6 0.55 82.35 0.55L82.35 0.55Q79.25 0.55 76.45-0.1 73.65-0.75 73.05-1.35L73.05-1.35 73.05-37.8 68.75-38.25ZM84-25.45Q81.9-25.45 80.05-24.45 78.2-23.45 77.1-22.25L77.1-22.25 77.1-3.75Q77.45-2.95 79.07-2.48 80.7-2 82.7-2L82.7-2Q87-2 89.6-5.18 92.2-8.35 92.2-14.5L92.2-14.5Q92.2-20 89.87-22.73 87.55-25.45 84-25.45L84-25.45ZM123.99 0.55Q121.04 0.55 118.54-0.98 116.04-2.5 114.54-5.6 113.04-8.7 113.04-13.2L113.04-13.2Q113.04-17.5 114.79-20.98 116.54-24.45 119.77-26.48 122.99-28.5 127.29-28.5L127.29-28.5Q130.04-28.5 132.59-27.9L132.59-27.9 132.59-37.8 127.39-38.3 127.39-40.1 135.59-40.95 135.69-40.95 136.64-40.25 136.64-2.25 139.69-2.25 139.69-0.3Q139.44-0.25 137.99 0.1 136.54 0.45 134.89 0.45L134.89 0.45Q133.74 0.45 133.27 0.05 132.79-0.35 132.79-1.7L132.79-1.7 132.79-3.45Q131.24-1.75 129.02-0.6 126.79 0.55 123.99 0.55L123.99 0.55ZM125.64-2.6Q127.79-2.6 129.72-3.63 131.64-4.65 132.59-5.9L132.59-5.9 132.59-24.3Q132.19-25 130.52-25.5 128.84-26 126.94-26L126.94-26Q122.64-26 120.04-22.93 117.44-19.85 117.44-13.6L117.44-13.6Q117.44-8 119.74-5.3 122.04-2.6 125.64-2.6L125.64-2.6ZM156.04 0.55Q150.24 0.55 147.11-3.43 143.99-7.4 143.99-14L143.99-14Q143.99-18.25 145.64-21.55 147.29-24.85 150.21-26.68 153.14-28.5 156.79-28.5L156.79-28.5Q161.24-28.5 163.71-25.95 166.19-23.4 166.39-18.6L166.39-18.6Q166.39-15.5 166.09-14.2L166.09-14.2 148.29-14.2Q148.29-8.95 150.66-5.63 153.04-2.3 157.34-2.3L157.34-2.3Q159.44-2.3 161.64-3.05 163.84-3.8 165.04-4.85L165.04-4.85 165.84-3Q164.39-1.5 161.61-0.48 158.84 0.55 156.04 0.55L156.04 0.55ZM148.34-16.55L161.89-16.55Q162.04-17.6 162.04-18.75L162.04-18.75Q161.99-22.05 160.46-24 158.94-25.95 155.79-25.95L155.79-25.95Q148.94-25.95 148.34-16.55L148.34-16.55ZM168.74-25.7L168.74-27.75 179.34-27.75 179.34-25.7 175.64-25.05 180.99-10.2 183.44-3.1 185.54-9.95 190.89-25.05 187.39-25.7 187.39-27.75 196.94-27.75 196.94-25.7 194.39-25.05 184.54 0.4 181.19 0.4 171.09-25.05 168.74-25.7ZM211.33 0.55Q205.53 0.55 202.41-3.43 199.28-7.4 199.28-14L199.28-14Q199.28-18.25 200.93-21.55 202.58-24.85 205.51-26.68 208.43-28.5 212.08-28.5L212.08-28.5Q216.53-28.5 219.01-25.95 221.48-23.4 221.68-18.6L221.68-18.6Q221.68-15.5 221.38-14.2L221.38-14.2 203.58-14.2Q203.58-8.95 205.96-5.63 208.33-2.3 212.63-2.3L212.63-2.3Q214.73-2.3 216.93-3.05 219.13-3.8 220.33-4.85L220.33-4.85 221.13-3Q219.68-1.5 216.91-0.48 214.13 0.55 211.33 0.55L211.33 0.55ZM203.63-16.55L217.18-16.55Q217.33-17.6 217.33-18.75L217.33-18.75Q217.28-22.05 215.76-24 214.23-25.95 211.08-25.95L211.08-25.95Q204.23-25.95 203.63-16.55L203.63-16.55ZM230.28-2.55L230.28-37.8 226.03-38.25 226.03-40.1 233.33-40.95 233.38-40.95 234.33-40.3 234.33-2.5 239.03-2.15 239.03 0 225.88 0 225.88-2.15 230.28-2.55ZM242.63-14.05Q242.63-18.4 244.45-21.7 246.28-25 249.25-26.75 252.23-28.5 255.48-28.5L255.48-28.5Q261.78-28.5 264.8-24.4 267.83-20.3 267.83-13.9L267.83-13.9Q267.83-9.55 266-6.25 264.18-2.95 261.2-1.2 258.23 0.55 254.98 0.55L254.98 0.55Q248.68 0.55 245.65-3.55 242.63-7.65 242.63-14.05L242.63-14.05ZM255.23-2.05Q259.08-2.05 261.18-5 263.28-7.95 263.28-13.6L263.28-13.6Q263.28-19 261.33-22.45 259.38-25.9 255.28-25.9L255.28-25.9Q251.43-25.9 249.3-22.95 247.18-20 247.18-14.35L247.18-14.35Q247.18-8.9 249.15-5.48 251.13-2.05 255.23-2.05L255.23-2.05ZM299.03-14.9Q299.03-10.6 297.28-7.08 295.53-3.55 292.3-1.5 289.08 0.55 284.93 0.55L284.93 0.55Q283.53 0.55 281.98 0.33 280.43 0.1 279.43-0.25L279.43-0.25 279.53 4 279.53 9.4 285.08 9.9 285.08 12.1 271.68 12.1 271.68 9.9 275.53 9.4 275.53-24.45 271.63-25.3 271.63-27.55 278.03-28.35 278.13-28.35 279.03-27.55 279.03-24.5Q280.63-26.15 282.93-27.33 285.23-28.5 288.08-28.5L288.08-28.5Q290.98-28.5 293.48-27.05 295.98-25.6 297.5-22.55 299.03-19.5 299.03-14.9L299.03-14.9ZM286.43-25.45Q284.28-25.45 282.43-24.55 280.58-23.65 279.53-22.55L279.53-22.55 279.53-3.5Q279.93-2.85 281.55-2.33 283.18-1.8 285.13-1.8L285.13-1.8Q289.43-1.8 292.05-4.98 294.68-8.15 294.68-14.35L294.68-14.35Q294.68-19.9 292.35-22.68 290.03-25.45 286.43-25.45L286.43-25.45ZM315.72 0.55Q309.92 0.55 306.8-3.43 303.67-7.4 303.67-14L303.67-14Q303.67-18.25 305.32-21.55 306.97-24.85 309.9-26.68 312.82-28.5 316.47-28.5L316.47-28.5Q320.92-28.5 323.4-25.95 325.87-23.4 326.07-18.6L326.07-18.6Q326.07-15.5 325.77-14.2L325.77-14.2 307.97-14.2Q307.97-8.95 310.35-5.63 312.72-2.3 317.02-2.3L317.02-2.3Q319.12-2.3 321.32-3.05 323.52-3.8 324.72-4.85L324.72-4.85 325.52-3Q324.07-1.5 321.3-0.48 318.52 0.55 315.72 0.55L315.72 0.55ZM308.02-16.55L321.57-16.55Q321.72-17.6 321.72-18.75L321.72-18.75Q321.67-22.05 320.15-24 318.62-25.95 315.47-25.95L315.47-25.95Q308.62-25.95 308.02-16.55L308.02-16.55ZM330.77 0L330.77-2.1 334.77-2.4 334.77-24.45 330.92-25.3 330.92-27.55 337.27-28.35 337.37-28.35 338.32-27.55 338.32-26.75 338.22-22.95 338.32-22.95Q338.42-23.05 339.65-24.48 340.87-25.9 343.3-27.2 345.72-28.5 348.17-28.5L348.17-28.5Q348.97-28.5 349.67-28.3L349.67-28.3 349.67-23.9Q349.47-24.05 348.8-24.2 348.12-24.35 347.37-24.35L347.37-24.35Q344.52-24.35 342.52-23.5 340.52-22.65 338.82-21.4L338.82-21.4 338.82-2.45 345.47-2.05 345.47 0 330.77 0Z" opacity="1" transform="matrix(1,0,0,1,0,0)" fill="#dedede" class="undefined-text-1" data-fill-palette-color="secondary" id="text-1"></path></svg></g></svg></g></svg></g></svg></g></svg></g></svg></g></svg></g><path d="M66.191 41.215L66.191 0 313.391 0 313.391 247.2 66.191 247.2 66.191 205.985 76.295 205.985 76.295 237.096 303.286 237.096 303.286 10.104 76.295 10.104 76.295 41.215Z" fill="#dd0505" stroke="transparent" data-fill-palette-color="primary"></path></svg></g><defs></defs></svg><rect width="395.52" height="247.2" fill="none" stroke="none" visibility="hidden"></rect></g></svg></g></svg>